<?xml version="1.0" encoding="utf-8"?>
<!-- Generator: Adobe Illustrator 18.1.1, SVG Export Plug-In . SVG Version: 6.00 Build 0)  -->
<!DOCTYPE svg PUBLIC "-//W3C//DTD SVG 1.1//EN" "http://www.w3.org/Graphics/SVG/1.1/DTD/svg11.dtd">
<svg version="1.1" id="Layer_2" xmlns="http://www.w3.org/2000/svg" xmlns:xlink="http://www.w3.org/1999/xlink" x="0px" y="0px"
	 viewBox="0 0 285 50" enable-background="new 0 0 285 50" xml:space="preserve">
<g>
	<g>
		<g>
			<path fill="#FFFFFF" d="M5.8,25.6C-2.2,39.3-1.8,50,6.2,50c7.1,0,18.2-8,26-19.3C26.9,43,28.9,50,35.2,50c7.3,0,19-8.7,27.7-21.7
				L5.8,25.6z"/>
			<path fill="#FFFFFF" d="M66.9,21.4C72.6,9.5,72,0,65.2,0C57.4,0,47,8.1,38.7,19.6C43.1,9.2,43.3,0,35.9,0
				c-8.4,0-21,10.6-29.4,24.4L66.9,21.4z"/>
		</g>
	</g>
	<g>
		<polygon fill="#FFFFFF" points="75.9,8.7 75.9,14.7 87.7,14.7 87.7,46.4 96.9,46.4 96.9,14.6 108,14.6 108,8.7 		"/>
		<path fill="#FFFFFF" d="M125.5,7.6C125.5,7.6,125.6,7.6,125.5,7.6C125.6,7.6,125.6,7.6,125.5,7.6L125.5,7.6z"/>
		<path fill="#FFFFFF" d="M125.6,7.6c-10.4,0-18.3,8.9-18.3,19.8s8.2,19.8,18.3,19.8s18.3-8.9,18.3-19.8
			C143.8,16.5,135.7,7.7,125.6,7.6 M125.5,41.5c-4.9,0-8.9-6.3-8.9-14.1s3.6-14,8.9-14h-0.1c4.9,0,8.9,6.3,8.9,14.1
			C134.4,35.2,130.4,41.5,125.5,41.5z"/>
		<path fill="#FFFFFF" d="M226.8,6.9C226.9,6.9,226.9,6.9,226.8,6.9C226.9,6.9,226.9,6.9,226.8,6.9L226.8,6.9z"/>
		<path fill="#FFFFFF" d="M226.9,6.9c-10.4,0-18.3,8.9-18.3,19.8s8.2,19.8,18.3,19.8s18.3-8.9,18.3-19.8S237,7,226.9,6.9
			 M226.9,40.8c-4.9,0-8.9-6.3-8.9-14.1s3.6-14,8.9-14h-0.1c4.9,0,8.8,6.3,8.8,14.1C235.7,34.5,231.7,40.8,226.9,40.8z"/>
		<path fill="#FFFFFF" d="M163.3,8.7h-15.6v12.5v0.3v25h9.9v-8.8c0,0,5.5,0,5.6,0C181.5,37.6,180.6,8.7,163.3,8.7 M160.2,32.3h-2.6
			V21.5v-0.3V14h2.6C170.3,14,170.1,32.3,160.2,32.3z"/>
		<path fill="#FFFFFF" d="M209.5,10.4c-3.1-2.5-7-3.2-11.2-3.2c-10.1,0-18.2,8.8-18.2,19.6s8.2,19.6,18.2,19.6
			c3.3,0,6.3,0.2,8.9-1.5c0,0,0-7.1,0-7c-0.9,1.9-4.2,3.3-6.7,3.3c-6,0-10.9-6.5-10.9-14.4c0-8,4.9-14.4,10.9-14.4
			c2.5,0,5.3,1.5,6.7,3C207.3,15.5,209.5,10.4,209.5,10.4z"/>
		<path fill="#FFFFFF" d="M249.4,45.8V8.1h15c5.9-0.1,9.3,1.1,11.6,7.4l9,30.3h-10.6l-7.5-27.4c-0.9-3.1-1.3-4.8-3.5-4.8h-4.7v32.2
			H249.4z"/>
	</g>
</g>
</svg>
